<svg width="9" height="14" viewBox="0 0 9 14" fill="none" xmlns="http://www.w3.org/2000/svg">
<path d="M0.810547 6.58398L1.46094 0.203125H8.01758V1.70605H2.84082L2.4541 5.19531C3.08105 4.82617 3.79297 4.6416 4.58984 4.6416C5.75586 4.6416 6.68164 5.02832 7.36719 5.80176C8.05273 6.56934 8.39551 7.60938 8.39551 8.92188C8.39551 10.2402 8.03809 11.2803 7.32324 12.042C6.61426 12.7979 5.62109 13.1758 4.34375 13.1758C3.21289 13.1758 2.29004 12.8623 1.5752 12.2354C0.860352 11.6084 0.453125 10.7412 0.353516 9.63379H1.8916C1.99121 10.3662 2.25195 10.9199 2.67383 11.2949C3.0957 11.6641 3.65234 11.8486 4.34375 11.8486C5.09961 11.8486 5.69141 11.5908 6.11914 11.0752C6.55273 10.5596 6.76953 9.84766 6.76953 8.93945C6.76953 8.08398 6.53516 7.39844 6.06641 6.88281C5.60352 6.36133 4.98535 6.10059 4.21191 6.10059C3.50293 6.10059 2.94629 6.25586 2.54199 6.56641L2.11133 6.91797L0.810547 6.58398Z" fill="#373737"/>
</svg>
